<?xml version="1.0" encoding="iso-8859-1"?>
<!-- Generator: Adobe Illustrator 19.0.0, SVG Export Plug-In . SVG Version: 6.00 Build 0)  -->
<svg version="1.1" id="Capa_1" xmlns="http://www.w3.org/2000/svg" xmlns:xlink="http://www.w3.org/1999/xlink" x="0px" y="0px"
	 viewBox="0 0 511.998 511.998" style="enable-background:new 0 0 511.998 511.998;" xml:space="preserve">
<g>
	<path style="fill:#585A60;" d="M72.24,440.195c-41.301-0.417-40.428-0.968-40.575,1.01c-0.206,2.757,5.012,0.667,6.26,5.124
		l0.006,0.044c0.126,3.962-0.185,54.253-0.205,57.379c-0.044,0.317-0.397,2.246-2.498,3.394c-0.608,0.333-0.914,1.035-0.742,1.706
		c0.171,0.671,0.776,1.141,1.469,1.141h0.317c6.366,0,14.981,0.185,19.866,1.066c3.452,0.623,6.829,0.939,10.038,0.939
		c0.002,0,0.001,0,0.002,0c24.952,0,38.107-19.074,38.202-37.914C104.462,457.92,94.439,440.42,72.24,440.195z M50.517,445.957
		c43.988-2.824,44.714,30.436,38.093,46.714c-3.465,8.519-15.605,13.61-25.343,13.61c-6.024-0.001-10.422-1.906-12.403-5.369
		L50.517,445.957z"/>
	<path style="fill:#585A60;" d="M130.628,475.511c0,23.732,19.423,36.149,38.608,36.149c18.605,0,38.378-13.268,38.378-37.856
		C207.614,426.967,130.628,425.769,130.628,475.511z M144.413,475.363c0-17.401,5.013-31.399,22.575-31.399
		c13.776,0,26.322,14.163,26.322,29.747c0.297,14.008-2.814,31.026-19.309,32.616c-17.065-0.025-27.02-10.463-29.583-30.935
		L144.413,475.363z"/>
	<path style="fill:#585A60;" d="M290.967,439.27c-1.52,0.484-3.363,0.809-4.585,0.809c-1.259,0-46.656-0.065-49.383-0.069
		c-1.881-0.985-4.808-2.185-5.263-0.114l-1.882,8.561c-0.157,0.714,0.217,1.438,0.89,1.723c0.672,0.283,1.453,0.048,1.856-0.562
		c0.818-1.239,2.05-2.177,3.762-2.865c4.394-0.176,16.19-0.196,18.783-0.199l-0.27,57.624c-0.004,0.085-0.12,2.08-1.978,3.211
		c-1.304,0.794-0.74,2.812,0.788,2.812c0.011,0,16.161-0.073,16.173-0.073c1.591-0.007,2.095-2.168,0.666-2.875
		c-1.325-0.657-2.028-1.648-2.141-2.936c-0.063-2.68-0.463-48.35-0.545-57.751l16.529,0.392c0.148,0.007,3.636,0.205,4.872,3.681
		c0.243,0.685,0.942,1.1,1.66,0.99c1.593-0.245,1.298-1.387,1.515-8.536c0.345-0.782,0.628-1.866,0.51-2.613
		C292.78,439.561,291.854,438.992,290.967,439.27z"/>
	<path style="fill:#585A60;" d="M383.142,488.86c-4.065-0.064-12.542-0.072-14.344-0.073c-0.058-0.144-20.315-50.251-20.315-50.251
		c-0.549-1.297-2.312-1.181-2.801,0.02l-26.476,65.116c-0.011,0.024-1.188,2.376-4.057,3.751c-1.452,0.696-0.948,2.881,0.653,2.884
		c0.082,0,12.003,0.019,12.003,0.019c1.706,0,2.096-2.388,0.502-2.948c-0.841-0.422-1.227-1.015-0.989-1.925
		c0.85-2.922,3.116-9.264,3.665-10.791l26.418,0.069l5.192,12.304c0.021,0.051,0.076,0.281-0.095,0.537
		c-0.883,0.963-0.21,2.522,1.096,2.541c0.107,0.002,15.069,0.213,15.069,0.213c0.893,0,1.536-0.707,1.536-1.516
		c0-0.665-0.429-1.231-1.026-1.435c-1.986-0.958-2.819-1.868-7.923-12.691c4.509,0.096,5.36-1.936,12.063-2.804
		c0.788-0.102,1.364-0.796,1.319-1.589C384.587,489.498,383.937,488.873,383.142,488.86z M344.573,459.222l10.637,29.471
		l-22.17,0.256L344.573,459.222z"/>
	<path style="fill:#585A60;" d="M477.44,494.363c-1.458,3.19-3.257,6.321-7.756,6.503c-2.344,0.092-14.825,0.586-22.665,0.528
		c47.013-35.857,34.494-62.853,6.484-62.853c-6.141,0-12.312,1.479-16.932,4.058c-0.446,0.249-0.736,0.705-0.773,1.213
		c-0.118,1.624,0.195,4.905,0.932,9.752c0.104,0.686,0.661,1.214,1.352,1.281c0.685,0.062,1.339-0.345,1.574-0.997
		c2.702-7.534,8.132-10.218,12.313-10.218c5.982,0,12.236,5.134,12.614,14.946c0.842,21.836-25.758,42.444-31.721,48.12
		c-1.011,0.872-1.804,1.791-0.966,2.849c0,1.905,2.411,2.148,2.949,0.593c5.117-0.03,32.89-0.19,38.031-0.134
		c3.726,0.27,5.569-1.896,5.651-4.318l1.788-10.437C480.612,493.506,478.172,492.761,477.44,494.363z"/>
</g>
<path style="fill:#EA473B;" d="M453.687,91.905c-1.557-73.655-1.654-57.734-0.137-80.69c0.09-1.361-0.938-2.537-2.298-2.63
	C341.575,1.083,337.419,0.218,328.92,0.218C179.299,0.206,257.85-2.239,58.138,9.542c-1.357,0.081-2.394,1.241-2.323,2.597
	c12.871,246.942,12.401,206.658,5.826,371.238c-0.047,1.182,0.75,2.231,1.902,2.503c14.947,3.534,12.298,2.143,47.165,2.168
	c0.057,0.017,65.341-7.112,65.4-7.118c0.308,0.051,90.277,14.817,90.59,14.817c0.069,0,0.137-0.003,0.206-0.009
	c105.441-8.836,75.218-6.701,143.243-10.471l39.943,8.079c1.554,0.312,2.979-0.889,2.962-2.45
	C452.187,310.478,453.687,91.905,453.687,91.905z M291.548,86.043c0.297-0.072,0.722-0.176,1.252-0.317l28.43-6.407
	c14.563-3.649,16.715-4.538,29.177-10.397h0.001c5.754,1.996,21.53,10.726,25.529,15.738c2.643,3.318,2.469,4.056,1.638,7.609
	c-0.16,0.682-0.343,1.467-0.535,2.394c-0.013,0.061-0.023,0.124-0.032,0.186l-6.252,48.924c-6.186,0.228-6.702-0.246-8.413-1.821
	c-0.706-0.652-1.585-1.462-3.135-2.501c-9.407-6.314-40.193-29.093-49.914-36.934l-19.11-15.354l0.154-0.149
	c0.207-0.206,0.391-0.483,0.513-0.748C290.947,86.191,291.325,86.098,291.548,86.043z M335.852,332.373
	C335.293,331.814,96.948,79.139,96.773,78.79l20.823-15.974l290.99,192.681c-2.405,6.891-3.365,14.799-4.811,21.366
	c-5.112,23.193-11.686,33.341-21.966,55.377C367.095,332.825,336.865,332.712,335.852,332.373z M119.036,264.012
	c2.679-6.439,6.362-16.797,9.458-22.044c15.22,9.511,74.676,69.25,79.847,77.316c-2.864,1.063-15.166,2.891-35.605,11.056
	c-12.95,5.166-25.178,10.067-36.989,6.059c-1.178-0.397-4.318-3.062-8.974-7.081c-8.504-7.341-16.205-12.63-20.683-15.273
	C98.452,309.536,99.642,310.487,119.036,264.012z"/>
<g>
	<path style="fill:#D82B27;" d="M86.228,264.537c-1.866-96.254,0.218-43.822-10.842-256.012L58.138,9.542
		c-1.357,0.081-2.394,1.241-2.323,2.597l9.183,176.187c1.824,94.113,2.323,52.87-3.357,195.051c-0.047,1.182,0.75,2.231,1.902,2.503
		c8.435,1.995,11.941,2.442,17.875,2.442C81.232,387.687,81.027,394.704,86.228,264.537z"/>
	<path style="fill:#D82B27;" d="M220.72,324.723c0,0,10.086-3.472,1.795-12.572c-33.842-37.745-54.458-51.419-74.053-72.917
		c-8.189-8.865-19.967,2.733-19.967,2.733c76.582,68.074,61.24,58.22,74.739,71.254c1.792,1.73,3.206,3.096,5.108,6.062
		c-0.354,0.131-1.919,0.526-4.085,1.073c-31.862,8.04-36.642,13.498-50.869,16.547c13.277,10.825,36.689-2.382,53.38-8.129
		C210.759,327.401,216.046,325.944,220.72,324.723L220.72,324.723z"/>
	<path style="fill:#D82B27;" d="M423.074,235.456c-0.001-0.001-278.195-177.413-278.195-177.413
		c-9.32-5.943-19.371-3.083-27.282,4.773l290.99,192.681c-2.405,6.891-3.365,14.799-4.811,21.366
		c-5.112,23.193-11.686,33.341-21.966,55.377c0,0,26.354,5.066,34.389-12.769c18.853-40.124,14.5-47.692,18.992-60.361
		C434.658,251.964,435.651,243.478,423.074,235.456z"/>
	<path style="fill:#D82B27;" d="M377.041,94.663c-0.013,0.061-0.023,0.124-0.032,0.186l-6.252,48.924
		c0,0,24.736,15.278,27.844-9.842c0.001-0.008,0.002-0.016,0.003-0.024l5.117-41.359c0.009-0.063,0.019-0.127,0.033-0.19
		c0.195-0.948,0.383-1.75,0.546-2.447c0.849-3.632,1.027-4.387-1.675-7.779c-2.84-3.56-15.566-12.956-25.047-19.049
		c-8.949-6-19.577,1.215-19.577,1.215c-2.653,2.033-5.024,3.809-7.593,4.624c6.499,3.515,22.966,12.526,25.529,15.738
		c2.643,3.318,2.469,4.056,1.638,7.609C377.415,92.952,377.232,93.737,377.041,94.663z"/>
</g>
<g>
</g>
<g>
</g>
<g>
</g>
<g>
</g>
<g>
</g>
<g>
</g>
<g>
</g>
<g>
</g>
<g>
</g>
<g>
</g>
<g>
</g>
<g>
</g>
<g>
</g>
<g>
</g>
<g>
</g>
</svg>
