<svg xmlns="http://www.w3.org/2000/svg" height="32px" width="32px" transform="scale(-1,1)" xmlns:xlink="http://www.w3.org/1999/xlink" version="1.1" x="0px" y="0px" viewBox="0 0 50 62.5" style="enable-background:new 0 0 50 50;" xml:space="preserve"><defs xmlns="http://www.w3.org/2000/svg"><style type="text/css">
   
    path {fill:white;fill-rule:nonzero}
   
  </style></defs><path d="M39.7314453,7.8320313C39.7792969,7.7714844,39.8125,7.7001953,39.828125,7.6240234l0.3525391-1.6914063  c0.0454102-0.2158203-0.0566406-0.4355469-0.2509766-0.5410156c-0.1923828-0.1054688-0.4335938-0.0712891-0.5908203,0.0849609  l-3.2324219,3.2119141l-4.3671875,4.4404297l-2.5126953,3.6162109l-4.8955078,3.4892578L20.1166992,24.625l-6.7143555,9.4970703  l-6.9853516,7.7949219c-1.2753906,0.1181641-2.2773438,1.1933594-2.2773438,2.4990234  c0,1.3847656,1.1259766,2.5107422,2.5102539,2.5107422s2.5102539-1.1259766,2.5102539-2.5224609l-0.0058594-0.2460938  l7.9609375-9.1455078l5.4736328-8.7490234l3.8710938-4.0820313l4.75-3.75  c0.0410156-0.0322266,0.0766602-0.0712891,0.105957-0.1152344l2.6875-4.0488281l3.1015625-3.1064453L39.7314453,7.8320313z   M8.2729492,43.6484375c-0.0626831,0.0716553-0.0947876,0.1610107-0.1090698,0.2541504  c-0.1116943-0.0806885-0.1755981-0.3079224-0.225769-0.6155396c0.2761841-0.0050659,0.4713135,0.0281982,0.5133057,0.1565552  L8.2729492,43.6484375z M7.3562622,42.8199463c-0.1570435,0.0114136-0.3228149,0.017395-0.4489746,0.0039673  c0.0404663-0.0249023,0.0827026-0.0476685,0.1151733-0.0836792l0.2312012-0.2581787  C7.2961426,42.555542,7.3297119,42.6781006,7.3562622,42.8199463z M6.6499023,45.9267578  c-0.8325195,0-1.5102539-0.6777344-1.5102539-1.5107422c0-0.7033691,0.4863892-1.2915039,1.1391602-1.4581299  c0.0300903,0.0700684,0.0678711,0.128418,0.1054688,0.1671143c0.2299805,0.2354126,0.6252441,0.2195435,1.050354,0.1896973  c0.0778198,0.5091553,0.2126465,1.0546265,0.7236938,1.1192627C8.1484375,45.2584839,7.4762573,45.9267578,6.6499023,45.9267578z   M33.2338867,13.6367188l-2.7060547,4.0595703l-4.7402344,3.7480469l-3.9584961,4.1669922  c-0.0234375,0.0244141-0.0439453,0.0507813-0.0615234,0.0791016l-5.453125,8.7285156L8.7940063,43.050415  c-0.208313-0.2342529-0.5685425-0.2738037-0.9343872-0.2617188c-0.0476074-0.2775879-0.1226807-0.5180054-0.2700806-0.6816406  l6.5935669-7.3619385l6.7021484-9.484375l4.0957031-4.2724609l4.8959961-3.4794922  c0.0473633-0.0332031,0.0878906-0.0742188,0.1210938-0.1220703l2.5078125-3.6220703l4.309082-4.3710938l1.9018555-1.8896484  l-2.3579102,2.9941406L33.2338867,13.6367188z M29.2280273,26.9980469c-0.0073242-0.0019531-0.7441406-0.2167969-1.065918-0.8837891  c-0.3823242-0.7919922-0.4433594-1.4091797-0.4438477-1.4150391c-0.0117188-0.1269531-0.1162109-0.2236328-0.2431641-0.2265625  c-0.1298828,0.0224609-0.2353516,0.0888672-0.253418,0.2148438c-0.0009766,0.0048828-0.0854492,0.5761719-0.5063477,1.3681641  c-0.3740234,0.703125-1.1635742,0.9414063-1.1713867,0.9433594c-0.1020508,0.0302734-0.1743164,0.1210938-0.1801758,0.2275391  c-0.0053711,0.1054688,0.0566406,0.2041016,0.1547852,0.2441406c0.0073242,0.0029297,0.7426758,0.3095703,1.0737305,0.9023438  c0.4492188,0.8027344,0.5161133,1.4033203,0.5170898,1.4091797C27.1220703,29.9052734,27.2226563,30,27.3457031,30.0058594  c0.0043945,0,0.0083008,0,0.012207,0c0.1181641,0,0.2211914-0.0830078,0.2451172-0.1992188  c0.0009766-0.0058594,0.1264648-0.6035156,0.5678711-1.3691406c0.3427734-0.5976563,1.0922852-0.9697266,1.0996094-0.9736328  c0.0927734-0.0458984,0.1479492-0.1435547,0.1386719-0.2470703S29.3276367,27.0263672,29.2280273,26.9980469z M27.7373047,28.1875  c-0.1479492,0.2568359-0.2631836,0.4960938-0.3520508,0.7060547c-0.0844727-0.2246094-0.1992188-0.4833984-0.3564453-0.7646484  c-0.2202148-0.3945313-0.5683594-0.6816406-0.8520508-0.8662109c0.3193359-0.1796875,0.7211914-0.4853516,0.9799805-0.9726563  c0.1181641-0.2216797,0.2119141-0.4277344,0.2861328-0.6123047c0.0678711,0.1982422,0.1557617,0.4189453,0.269043,0.6533203  c0.2294922,0.4765625,0.6069336,0.7714844,0.9091797,0.9433594C28.3344727,27.4736328,27.9697266,27.7841797,27.7373047,28.1875z   M19.3671875,14.4580078c0.0078125,0.0029297,0.7456055,0.3125,1.0742188,0.9013672  c0.4492188,0.8027344,0.5161133,1.4042969,0.5170898,1.4101563c0.0126953,0.1220703,0.1132813,0.2177734,0.2363281,0.2236328  c0.0043945,0,0.0083008,0,0.012207,0c0.1181641,0,0.2211914-0.0830078,0.2451172-0.1992188  c0.0009766-0.0058594,0.1264648-0.6035156,0.5673828-1.3701172c0.3432617-0.5966797,1.0927734-0.96875,1.1000977-0.9726563  c0.0927734-0.0458984,0.1479492-0.1435547,0.1386719-0.2470703c-0.0092773-0.1025391-0.081543-0.1894531-0.1811523-0.2177734  c-0.0073242-0.0029297-0.7441406-0.21875-1.065918-0.8847656c-0.3823242-0.7919922-0.4433594-1.4091797-0.4438477-1.4150391  c-0.0117188-0.1259766-0.1162109-0.2236328-0.2431641-0.2265625c-0.1201172-0.0029297-0.2358398,0.0898438-0.253418,0.2148438  c-0.0009766,0.0048828-0.0854492,0.5751953-0.5063477,1.3671875c-0.3745117,0.703125-1.1635742,0.9423828-1.171875,0.9443359  c-0.1015625,0.0302734-0.1738281,0.1210938-0.1791992,0.2265625C19.2075195,14.3193359,19.2695313,14.4169922,19.3671875,14.4580078  z M21.0058594,13.2763672c0.1176758-0.2216797,0.2114258-0.4267578,0.2861328-0.6113281  c0.0678711,0.1972656,0.1552734,0.4189453,0.269043,0.6533203c0.2299805,0.4755859,0.6069336,0.7705078,0.909668,0.9423828  c-0.2866211,0.2001953-0.6523438,0.5097656-0.8847656,0.9130859c-0.1479492,0.2578125-0.2626953,0.4970703-0.3515625,0.7060547  c-0.0844727-0.2246094-0.1992188-0.4833984-0.3564453-0.7646484c-0.2202148-0.3945313-0.5683594-0.6816406-0.8520508-0.8662109  C20.3452148,14.0693359,20.7470703,13.7636719,21.0058594,13.2763672z M30.7255859,5.4130859  c0.0048828,0.0009766,0.4482422,0.1894531,0.6425781,0.5371094C31.644043,6.4433594,31.6870117,6.8125,31.6870117,6.8144531  c0.012207,0.1230469,0.112793,0.21875,0.2358398,0.2246094c0.0043945,0.0009766,0.0087891,0.0009766,0.0131836,0.0009766  c0.1181641,0,0.2207031-0.0830078,0.2451172-0.2001953c0.0004883-0.0039063,0.0791016-0.3730469,0.3525391-0.8476563  c0.2050781-0.3564453,0.659668-0.5839844,0.6645508-0.5859375c0.0927734-0.0458984,0.1479492-0.1445313,0.1381836-0.2480469  S33.2543945,4.96875,33.1542969,4.9404297c-0.0039063-0.0009766-0.4360352-0.1298828-0.6230469-0.5166016  c-0.2358398-0.4892578-0.2744141-0.8701172-0.2749023-0.8740234c-0.012207-0.125-0.1166992-0.2226563-0.2431641-0.2255859  c-0.1328125,0.0068359-0.2348633,0.0888672-0.253418,0.2138672c-0.0004883,0.0039063-0.0537109,0.3554688-0.3139648,0.8447266  c-0.2202148,0.4140625-0.6899414,0.5576172-0.6943359,0.5585938C30.6499023,4.9716797,30.578125,5.0625,30.5727539,5.1679688  C30.5668945,5.2744141,30.6279297,5.3720703,30.7255859,5.4130859z M31.887207,4.6171875  c0.0356445-0.0664063,0.0678711-0.1308594,0.097168-0.1933594c0.0283203,0.0693359,0.0605469,0.1425781,0.0966797,0.2167969  c0.1279297,0.265625,0.3227539,0.4482422,0.5024414,0.5693359c-0.168457,0.1308594-0.3554688,0.3105469-0.4833984,0.5322266  c-0.0537109,0.09375-0.1010742,0.1835938-0.1425781,0.2695313c-0.0424805-0.0966797-0.0932617-0.1982422-0.152832-0.3056641  c-0.1201172-0.2148438-0.2958984-0.3828125-0.4594727-0.5048828C31.534668,5.0751953,31.7431641,4.8876953,31.887207,4.6171875z   M45.4282227,6.5498047c-0.0043945-0.0019531-0.4370117-0.1308594-0.6245117-0.5175781  c-0.2358398-0.4892578-0.2744141-0.8701172-0.2749023-0.8740234c-0.012207-0.125-0.1166992-0.2226563-0.2431641-0.2255859  c-0.1225586-0.0263672-0.2348633,0.0888672-0.253418,0.2138672c-0.0004883,0.0039063-0.0537109,0.3554688-0.3139648,0.8447266  c-0.2202148,0.4140625-0.6899414,0.5576172-0.6943359,0.5585938c-0.1015625,0.0302734-0.1733398,0.1210938-0.1787109,0.2265625  c-0.0058594,0.1064453,0.0551758,0.2041016,0.152832,0.2451172c0.0048828,0.0009766,0.4482422,0.1894531,0.6425781,0.5371094  c0.2763672,0.4931641,0.3188477,0.8613281,0.3188477,0.8642578c0.012207,0.1230469,0.1123047,0.21875,0.2358398,0.2246094  c0.0043945,0.0009766,0.0087891,0.0009766,0.0131836,0.0009766c0.1181641,0,0.2207031-0.0830078,0.2451172-0.2001953  c0.0004883-0.0039063,0.0791016-0.3730469,0.3525391-0.8476563c0.2050781-0.3564453,0.659668-0.5839844,0.6645508-0.5859375  c0.0922852-0.0458984,0.1469727-0.1445313,0.1376953-0.2470703S45.5273438,6.578125,45.4282227,6.5498047z M44.3725586,7.3505859  c-0.0537109,0.09375-0.1010742,0.1835938-0.1420898,0.2685547C44.1875,7.5234375,44.137207,7.421875,44.0771484,7.3144531  c-0.1201172-0.2148438-0.2958984-0.3828125-0.4594727-0.5048828c0.1894531-0.1259766,0.3984375-0.3134766,0.5419922-0.5839844  c0.0356445-0.0664063,0.0678711-0.1308594,0.097168-0.1933594c0.0283203,0.0693359,0.0605469,0.1425781,0.0966797,0.2167969  c0.1279297,0.265625,0.3232422,0.4482422,0.5024414,0.5693359C44.6875,6.9492188,44.5004883,7.1289063,44.3725586,7.3505859z   M41.1088867,25.4589844c-0.012207-0.0029297-1.2626953-0.3652344-1.8129883-1.5048828  c-0.6298828-1.3046875-0.7290039-2.3232422-0.7299805-2.3330078c-0.0117188-0.1269531-0.1162109-0.2236328-0.2431641-0.2275391  c-0.1088867-0.0097656-0.2358398,0.0898438-0.253418,0.2158203c-0.0014648,0.0097656-0.1391602,0.9511719-0.8325195,2.2548828  c-0.6347656,1.1933594-1.9663086,1.5917969-1.9799805,1.5957031c-0.1020508,0.0292969-0.1743164,0.1210938-0.1801758,0.2265625  c-0.0053711,0.1064453,0.0561523,0.2050781,0.1547852,0.2451172c0.012207,0.0048828,1.246582,0.5195313,1.8061523,1.5205078  c0.7412109,1.3261719,0.8496094,2.3193359,0.8510742,2.3300781C37.9008789,29.9042969,38.0014648,30,38.125,30.0058594  c0.0039063,0.0009766,0.0083008,0.0009766,0.012207,0.0009766c0.1181641,0,0.2211914-0.0839844,0.2451172-0.2001953  c0.0019531-0.0097656,0.2070313-0.9931641,0.9321289-2.2529297c0.5771484-1.0029297,1.824707-1.6230469,1.8374023-1.6289063  c0.0932617-0.0458984,0.1479492-0.1445313,0.1386719-0.2470703C41.28125,25.5742188,41.2089844,25.4873047,41.1088867,25.4589844z   M38.8808594,27.3037109c-0.3300781,0.5742188-0.5576172,1.0908203-0.7104492,1.4970703  c-0.1347656-0.4267578-0.3510742-0.9746094-0.6962891-1.5927734c-0.4023438-0.71875-1.0800781-1.2089844-1.546875-1.4814453  c0.5151367-0.2509766,1.2836914-0.7490234,1.7509766-1.6279297c0.2807617-0.5273438,0.4755859-0.9980469,0.609375-1.3808594  c0.1166992,0.4052734,0.2929688,0.9042969,0.5581055,1.453125c0.4130859,0.8564453,1.1367188,1.3330078,1.6245117,1.5703125  C40.0063477,26.0371094,39.3017578,26.5732422,38.8808594,27.3037109z M32.550293,21.9667969  c0-0.4970703-0.4038086-0.9013672-0.9003906-0.9013672s-0.9008789,0.4042969-0.9008789,0.9013672  c0,0.4960938,0.4042969,0.9003906,0.9008789,0.9003906S32.550293,22.4628906,32.550293,21.9667969z M31.6499023,22.3671875  c-0.2211914,0-0.4008789-0.1796875-0.4008789-0.4003906c0-0.2216797,0.1796875-0.4013672,0.4008789-0.4013672  c0.2207031,0,0.4003906,0.1796875,0.4003906,0.4013672C32.050293,22.1875,31.8706055,22.3671875,31.6499023,22.3671875z   M41.6928711,12.6748047c-0.496582,0-0.9008789,0.4042969-0.9008789,0.9003906c0,0.4970703,0.4042969,0.9013672,0.9008789,0.9013672  s0.9003906-0.4042969,0.9003906-0.9013672C42.5932617,13.0791016,42.1894531,12.6748047,41.6928711,12.6748047z   M41.6928711,13.9765625c-0.2211914,0-0.4008789-0.1796875-0.4008789-0.4013672  c0-0.2207031,0.1796875-0.4003906,0.4008789-0.4003906c0.2207031,0,0.4003906,0.1796875,0.4003906,0.4003906  C42.0932617,13.796875,41.9135742,13.9765625,41.6928711,13.9765625z M27.3867188,11.4853516  c0.496582,0,0.9008789-0.4042969,0.9008789-0.9003906s-0.4042969-0.9003906-0.9008789-0.9003906  s-0.9003906,0.4042969-0.9003906,0.9003906S26.8901367,11.4853516,27.3867188,11.4853516z M27.3867188,10.1845703  c0.2211914,0,0.4008789,0.1796875,0.4008789,0.4003906s-0.1796875,0.4003906-0.4008789,0.4003906  c-0.2207031,0-0.4003906-0.1796875-0.4003906-0.4003906S27.1660156,10.1845703,27.3867188,10.1845703z M32.6049805,33.6494141  c-0.496582,0-0.9003906,0.4042969-0.9003906,0.9003906s0.4038086,0.9003906,0.9003906,0.9003906  s0.9008789-0.4042969,0.9008789-0.9003906S33.1015625,33.6494141,32.6049805,33.6494141z M32.6049805,34.9501953  c-0.2207031,0-0.4003906-0.1796875-0.4003906-0.4003906s0.1796875-0.4003906,0.4003906-0.4003906  c0.2211914,0,0.4008789,0.1796875,0.4008789,0.4003906S32.8261719,34.9501953,32.6049805,34.9501953z"/></svg>